<svg width="52" height="52" viewBox="0 0 52 52" fill="none" xmlns="http://www.w3.org/2000/svg">
<path d="M23.1562 11.7305C23.1562 12.4847 23.4559 13.208 23.9892 13.7413C24.5225 14.2746 25.2458 14.5742 26 14.5742C26.7542 14.5742 27.4775 14.2746 28.0108 13.7413C28.5441 13.208 28.8438 12.4847 28.8438 11.7305C28.8438 10.9763 28.5441 10.2529 28.0108 9.71963C27.4775 9.18633 26.7542 8.88672 26 8.88672C25.2458 8.88672 24.5225 9.18633 23.9892 9.71963C23.4559 10.2529 23.1562 10.9763 23.1562 11.7305ZM23.1562 25.9492C23.1562 26.7034 23.4559 27.4267 23.9892 27.9601C24.5225 28.4934 25.2458 28.793 26 28.793C26.7542 28.793 27.4775 28.4934 28.0108 27.9601C28.5441 27.4267 28.8438 26.7034 28.8438 25.9492C28.8438 25.195 28.5441 24.4717 28.0108 23.9384C27.4775 23.4051 26.7542 23.1055 26 23.1055C25.2458 23.1055 24.5225 23.4051 23.9892 23.9384C23.4559 24.4717 23.1562 25.195 23.1562 25.9492ZM23.1562 40.168C23.1562 40.9222 23.4559 41.6455 23.9892 42.1788C24.5225 42.7121 25.2458 43.0117 26 43.0117C26.7542 43.0117 27.4775 42.7121 28.0108 42.1788C28.5441 41.6455 28.8438 40.9222 28.8438 40.168C28.8438 39.4138 28.5441 38.6904 28.0108 38.1571C27.4775 37.6238 26.7542 37.3242 26 37.3242C25.2458 37.3242 24.5225 37.6238 23.9892 38.1571C23.4559 38.6904 23.1562 39.4138 23.1562 40.168Z" fill="black"/>
</svg>
